HIERARCHY
ROOT Hips
{
	OFFSET 0.000000 0.000000 0.000000
	CHANNELS 6 Xposition Yposition Zposition Xrotation Yrotation Zrotation
	JOINT LeftUpLeg_virtual
	{
		OFFSET 0.000000 0.000000 0.000000
		CHANNELS 3 Xrotation Yrotation Zrotation
		JOINT LeftUpLeg
		{
			OFFSET 15.427100 -6.655098 0.678600
			CHANNELS 3 Xrotation Yrotation Zrotation
			JOINT LeftLeg
			{
				OFFSET 4.081073 -39.591068 13.024000
				CHANNELS 3 Xrotation Yrotation Zrotation
				JOINT LeftFoot
				{
					OFFSET -4.081074 -37.707932 -15.979700
					CHANNELS 3 Xrotation Yrotation Zrotation
					JOINT LeftToeBase
					{
						OFFSET 5.346399 -15.068900 20.645000
						CHANNELS 3 Xrotation Yrotation Zrotation
						JOINT LeftToe_End
						{
							OFFSET 2.754700 0.931300 11.300900
							CHANNELS 3 Xrotation Yrotation Zrotation
							End Site
							{
								OFFSET 0 0 0
							}
						}
					}
				}
			}
		}
	}
	JOINT RightUpLeg_virtual
	{
		OFFSET 0.000000 0.000000 0.000000
		CHANNELS 3 Xrotation Yrotation Zrotation
		JOINT RightUpLeg
		{
			OFFSET -15.569500 -6.655098 0.678600
			CHANNELS 3 Xrotation Yrotation Zrotation
			JOINT RightLeg
			{
				OFFSET -4.081825 -39.591045 13.023800
				CHANNELS 3 Xrotation Yrotation Zrotation
				JOINT RightFoot
				{
					OFFSET 4.081824 -37.707954 -15.979600
					CHANNELS 3 Xrotation Yrotation Zrotation
					JOINT RightToeBase
					{
						OFFSET -5.346400 -15.068900 20.645000
						CHANNELS 3 Xrotation Yrotation Zrotation
						JOINT RightToe_End
						{
							OFFSET -2.754700 0.931300 11.300900
							CHANNELS 3 Xrotation Yrotation Zrotation
							End Site
							{
								OFFSET 0 0 0
							}
						}
					}
				}
			}
		}
	}
	JOINT Spine_virtual
	{
		OFFSET 0.000000 0.000000 0.000000
		CHANNELS 3 Xrotation Yrotation Zrotation
		JOINT Spine
		{
			OFFSET -0.279200 12.230698 -2.892100
			CHANNELS 3 Xrotation Yrotation Zrotation
			JOINT Spine1
			{
				OFFSET -0.232667 10.192268 -1.242267
				CHANNELS 3 Xrotation Yrotation Zrotation
				JOINT Spine1_split
				{
					OFFSET -0.232667 10.192268 -1.242267
					CHANNELS 3 Xrotation Yrotation Zrotation
					JOINT Spine2
					{
						OFFSET -0.232667 10.192268 -1.242267
						CHANNELS 3 Xrotation Yrotation Zrotation
						JOINT Neck_virtual
						{
							OFFSET 0.000000 0.000000 0.000000
							CHANNELS 3 Xrotation Yrotation Zrotation
							JOINT Neck
							{
								OFFSET -0.418800 17.814194 8.416900
								CHANNELS 3 Xrotation Yrotation Zrotation
								JOINT Head
								{
									OFFSET 0.000000 7.031097 3.806800
									CHANNELS 3 Xrotation Yrotation Zrotation
									JOINT HeadTop_End
									{
										OFFSET 0.000000 24.646606 12.978600
										CHANNELS 3 Xrotation Yrotation Zrotation
										End Site
										{
											OFFSET 0 0 0
										}
									}
								}
							}
						}
						JOINT LeftShoulder_virtual
						{
							OFFSET 0.000000 0.000000 0.000000
							CHANNELS 3 Xrotation Yrotation Zrotation
							JOINT LeftShoulder
							{
								OFFSET 8.476499 7.247704 -3.868750
								CHANNELS 3 Xrotation Yrotation Zrotation
								JOINT LeftShoulder_split
								{
									OFFSET 8.476499 7.247704 -3.868750
									CHANNELS 3 Xrotation Yrotation Zrotation
									JOINT LeftArm
									{
										OFFSET 9.308998 -2.777710 0.208600
										CHANNELS 3 Xrotation Yrotation Zrotation
										JOINT LeftForeArm
										{
											OFFSET 29.972298 0.000000 0.000000
											CHANNELS 3 Xrotation Yrotation Zrotation
											JOINT LeftHand
											{
												OFFSET 26.026505 0.000000 0.000000
												CHANNELS 3 Xrotation Yrotation Zrotation
												End Site
												{
													OFFSET 0 0 0
												}
											}
										}
									}
								}
							}
						}
						JOINT RightShoulder_virtual
						{
							OFFSET 0.000000 0.000000 0.000000
							CHANNELS 3 Xrotation Yrotation Zrotation
							JOINT RightShoulder
							{
								OFFSET -7.570500 7.247704 -3.868750
								CHANNELS 3 Xrotation Yrotation Zrotation
								JOINT RightShoulder_split
								{
									OFFSET -7.570500 7.247704 -3.868750
									CHANNELS 3 Xrotation Yrotation Zrotation
									JOINT RightArm
									{
										OFFSET -9.308998 -2.777710 0.208500
										CHANNELS 3 Xrotation Yrotation Zrotation
										JOINT RightForeArm
										{
											OFFSET -29.972300 0.000000 0.000000
											CHANNELS 3 Xrotation Yrotation Zrotation
											JOINT RightHand
											{
												OFFSET -26.026505 0.000000 0.000000
												CHANNELS 3 Xrotation Yrotation Zrotation
												End Site
												{
													OFFSET 0 0 0
												}
											}
										}
									}
								}
							}
						}
					}
				}
			}
		}
	}
}
MOTION
Frames: 11
Frame Time: 0.03333333
-0.055394 92.357880 -0.224579 0.000000 0.000000 0.000000 -42.806353 -81.014732 -45.156163 -15.979132 14.632212 12.302244 24.526087 -3.729700 6.083390 -7.582823 2.428889 -9.121233 1.777686 0.060034 0.105497 0.000000 0.000000 0.000000 -45.566477 -84.368867 -46.621119 -10.474769 -23.184223 -6.477784 22.577404 8.708101 -6.465884 -10.075116 -2.116054 9.434006 -2.594187 0.081226 -0.767824 0.000000 0.000000 0.000000 -15.866309 -82.668717 -18.753553 0.583326 0.453957 0.104433 4.307971 0.315371 1.587510 -0.564698 -0.987253 0.176937 0.000000 0.000000 0.000000 4.237004 0.143028 1.403401 -6.470762 8.468975 -4.397151 -2.916880 37.715328 -3.296014 0.000000 0.000000 0.000000 5.196151 0.494291 1.700226 -0.957172 5.162093 -1.478431 -0.195423 2.163897 1.107986 9.180342 -77.236408 -54.869980 -0.266755 -13.652817 0.085687 0.000000 0.000000 0.000000 5.119261 0.455686 1.530733 1.652554 4.952463 7.001902 2.079774 -0.515850 -1.411669 7.795463 22.797230 60.401494 0.825918 63.641893 -0.523184 0.000000 0.000000 0.000000 
-0.104196 92.417267 -0.278614 0.000000 0.000000 0.000000 -43.014602 -81.144833 -45.451108 -16.070778 14.627197 12.300543 24.686447 -3.702474 6.251043 -7.534295 2.333036 -9.245398 1.566724 0.073174 0.194762 0.000000 0.000000 0.000000 -45.864864 -84.470643 -46.898954 -10.478751 -23.168297 -6.538360 22.642099 8.752239 -6.408869 -10.022440 -2.172446 9.473342 -2.516398 0.078454 -0.794332 0.000000 0.000000 0.000000 -15.510605 -82.519689 -18.392000 0.571778 0.477710 0.159113 4.259376 0.272423 1.610471 -0.558457 -1.049254 0.172057 0.000000 0.000000 0.000000 4.219366 0.122216 1.433175 -6.477529 8.500423 -4.430525 -3.042903 37.849862 -3.255211 0.000000 0.000000 0.000000 5.155154 0.473005 1.747638 -0.911671 5.162451 -1.538037 -0.457745 1.982780 1.196936 9.729728 -77.005540 -54.490337 -0.166686 -13.963576 0.144710 0.000000 0.000000 0.000000 5.092198 0.457335 1.517197 1.622037 5.019724 6.966989 2.277968 -0.402227 -1.434861 7.495910 22.846938 60.407491 0.825918 63.641893 -0.523184 0.000000 0.000000 0.000000 
-0.137277 92.458191 -0.312422 0.000000 0.000000 0.000000 -42.845824 -81.230770 -45.336463 -16.181244 14.465342 12.269887 24.866511 -3.712269 6.471421 -7.336690 2.198404 -9.369453 1.229008 0.120081 -0.004289 0.000000 0.000000 0.000000 -45.132883 -84.510095 -46.264809 -10.465192 -23.052870 -6.571268 22.611606 8.790342 -6.429455 -9.910469 -2.243177 9.644985 -2.412671 0.079488 -0.827083 0.000000 0.000000 0.000000 -15.250434 -82.335683 -18.162706 0.556474 0.521324 0.272330 4.235176 0.172325 1.643485 -0.549195 -1.070348 0.118180 0.000000 0.000000 0.000000 4.238736 0.067832 1.484731 -6.451888 8.583473 -4.498465 -3.142212 38.177107 -3.181012 0.000000 0.000000 0.000000 5.112695 0.402759 1.808735 -0.830585 5.224082 -1.695431 -0.779497 1.813576 1.186431 12.751615 -77.130977 -51.628495 0.005631 -14.403505 0.247009 0.000000 0.000000 0.000000 5.050028 0.433325 1.534325 1.594666 5.145469 6.868130 2.480274 -0.323699 -1.445955 7.409802 22.953327 60.409219 0.825918 63.641893 -0.523184 0.000000 0.000000 0.000000 
-0.124074 92.457779 -0.339516 0.000000 0.000000 0.000000 -42.535785 -81.274784 -45.026014 -16.263498 14.254834 12.180708 24.975799 -3.706565 6.716610 -7.073217 2.099134 -9.383847 0.835532 0.159951 -0.339514 0.000000 0.000000 0.000000 -43.778231 -84.470008 -45.064051 -10.456763 -22.863017 -6.507370 22.584150 8.774374 -6.505014 -9.854936 -2.336715 9.917301 -2.364772 0.069596 -0.820068 0.000000 0.000000 0.000000 -15.321540 -82.256938 -18.287517 0.555166 0.558613 0.394083 4.246222 0.060915 1.699639 -0.516173 -1.061796 0.049819 0.000000 0.000000 0.000000 4.294814 0.012211 1.556003 -6.416551 8.697733 -4.571045 -3.145579 38.557162 -3.144642 0.000000 0.000000 0.000000 5.077666 0.326177 1.889147 -0.751766 5.379095 -1.871578 -1.068906 1.780584 1.085865 17.652469 -77.691879 -46.777845 0.222353 -14.651340 0.379142 0.000000 0.000000 0.000000 5.017268 0.410315 1.570727 1.581242 5.292345 6.743606 2.603247 -0.218996 -1.437232 7.590121 22.853594 60.375935 0.825918 63.641893 -0.523184 0.000000 0.000000 0.000000 
-0.041178 92.429504 -0.353313 0.000000 0.000000 0.000000 -42.942366 -81.364075 -45.322523 -16.193354 14.226566 12.016651 24.941798 -3.664662 6.974638 -6.854482 2.067876 -9.237993 0.455393 0.170068 -0.556843 0.000000 0.000000 0.000000 -43.175443 -84.484877 -44.559348 -10.538005 -22.617596 -6.367394 22.645525 8.700709 -6.662012 -9.917461 -2.416727 10.177504 -2.413759 0.049423 -0.753229 0.000000 0.000000 0.000000 -15.561442 -82.302974 -18.552302 0.577117 0.599210 0.448350 4.286635 0.010088 1.769078 -0.458997 -1.075270 -0.015014 0.000000 0.000000 0.000000 4.374000 0.004383 1.631761 -6.412524 8.818538 -4.623305 -3.046478 38.834113 -3.169516 0.000000 0.000000 0.000000 5.045921 0.294155 1.974453 -0.716394 5.604026 -1.953991 -1.301757 1.853331 0.988000 23.425438 -78.614849 -40.894665 0.440984 -14.544290 0.505439 0.000000 0.000000 0.000000 5.017171 0.434966 1.603675 1.578432 5.440922 6.662470 2.661526 -0.000403 -1.402078 8.028002 22.337198 60.319340 0.825918 63.641893 -0.523184 0.000000 0.000000 0.000000 
0.147465 92.435028 -0.386074 0.000000 0.000000 0.000000 -43.977549 -81.529216 -46.187495 -16.022446 14.503545 11.747395 24.724431 -3.610771 7.219368 -6.741124 2.057996 -8.995966 0.248500 0.148970 -0.465130 0.000000 0.000000 0.000000 -44.101469 -84.633632 -45.512969 -10.826292 -22.344161 -6.152251 22.855541 8.585380 -6.937747 -10.071556 -2.493788 10.264637 -2.542267 0.025660 -0.638915 0.000000 0.000000 0.000000 -16.128211 -82.499594 -19.047697 0.639459 0.645327 0.370132 4.342456 0.081990 1.827414 -0.395842 -1.120339 -0.048214 0.000000 0.000000 0.000000 4.468930 0.087100 1.678182 -6.478481 8.920662 -4.639906 -2.935784 38.879479 -3.254363 0.000000 0.000000 0.000000 5.028676 0.356102 2.031425 -0.753602 5.850481 -1.859854 -1.407374 1.950995 0.832282 28.901754 -79.606640 -35.116673 0.637748 -14.264264 0.584941 0.000000 0.000000 0.000000 5.077339 0.546209 1.606588 1.586358 5.566673 6.673334 2.580479 0.373609 -1.311248 8.592013 21.238442 60.220815 0.825918 63.641893 -0.523184 0.000000 0.000000 0.000000 
0.430965 92.468369 -0.486675 0.000000 0.000000 0.000000 -45.357459 -81.831294 -47.355955 -15.908938 15.077013 11.444544 24.409423 -3.562136 7.448757 -6.797535 2.038921 -8.875009 0.359136 0.109467 -0.102990 0.000000 0.000000 0.000000 -47.137321 -84.989410 -48.439046 -11.383003 -21.975656 -5.910693 23.259470 8.447807 -7.406178 -10.150067 -2.576870 10.032009 -2.669767 0.002376 -0.501339 0.000000 0.000000 0.000000 -17.330191 -82.926679 -20.047619 0.727581 0.705759 0.132952 4.434353 0.296960 1.838904 -0.336700 -1.192922 -0.080963 0.000000 0.000000 0.000000 4.597271 0.275682 1.651921 -6.618082 8.980325 -4.620779 -3.019609 38.761617 -3.348219 0.000000 0.000000 0.000000 5.064632 0.508227 2.016949 -0.829583 6.047330 -1.595266 -1.357368 1.956081 0.732666 32.520600 -80.148568 -31.010923 0.780452 -14.442220 0.597277 0.000000 0.000000 0.000000 5.219692 0.734779 1.538992 1.592830 5.659301 6.789009 2.353062 0.910436 -1.268611 9.120175 19.710321 60.096205 0.825918 63.641893 -0.523184 0.000000 0.000000 0.000000 
0.810991 92.493896 -0.695295 0.000000 0.000000 0.000000 -47.724195 -82.231707 -49.469370 -15.997307 15.770326 11.183797 24.208390 -3.462235 7.707190 -6.878697 1.967165 -9.043777 0.851053 0.115404 0.242734 0.000000 0.000000 0.000000 -52.048213 -85.465467 -53.123063 -12.231580 -21.476473 -5.705594 23.841574 8.379344 -8.021071 -10.009988 -2.640424 9.372764 -2.700844 -0.011713 -0.392282 0.000000 0.000000 0.000000 -19.723971 -83.563096 -22.129321 0.837524 0.770420 -0.252298 4.591546 0.627420 1.757315 -0.324103 -1.248565 -0.135391 0.000000 0.000000 0.000000 4.795274 0.544150 1.522931 -6.821516 8.988584 -4.582885 -3.517114 38.539544 -3.373176 0.000000 0.000000 0.000000 5.204488 0.735208 1.882156 -0.895059 6.129215 -1.245015 -1.216194 1.942537 0.697057 32.280256 -79.551364 -30.673102 0.847649 -16.006763 0.522142 0.000000 0.000000 0.000000 5.451028 0.971629 1.384523 1.577015 5.694046 7.016805 1.937331 1.517549 -1.302273 9.507400 18.123472 59.880432 0.825918 63.641893 -0.523184 0.000000 0.000000 0.000000 
1.298383 92.414246 -1.031860 0.000000 0.000000 0.000000 -51.271051 -82.674024 -52.799005 -16.539269 16.233744 11.038304 24.508474 -3.111295 8.074761 -6.795024 1.891812 -9.523019 1.396237 0.150718 0.199686 0.000000 0.000000 0.000000 -59.563874 -85.970949 -60.355820 -13.431220 -20.857810 -5.521958 24.740224 8.447506 -8.635333 -9.756716 -2.714432 8.437182 -2.640530 -0.013096 -0.342782 0.000000 0.000000 0.000000 -23.428341 -84.270806 -25.466903 0.996664 0.820598 -0.721862 4.865150 0.973148 1.572915 -0.374573 -1.264536 -0.193875 0.000000 0.000000 0.000000 5.117887 0.806282 1.290519 -7.075927 8.943336 -4.542208 -4.479696 38.300327 -3.323513 0.000000 0.000000 0.000000 5.513041 0.975739 1.610564 -0.920986 6.096384 -0.875731 -1.042958 1.944812 0.768407 28.777172 -77.377751 -33.533384 0.848084 -19.600288 0.358638 0.000000 0.000000 0.000000 5.784731 1.179713 1.155015 1.540157 5.645636 7.326399 1.376832 2.083866 -1.355071 9.696579 16.907947 59.418063 0.825918 63.641893 -0.523184 0.000000 0.000000 0.000000 
1.864162 92.003532 -1.517645 0.000000 0.000000 0.000000 -56.780336 -83.198275 -58.074817 -17.761299 16.096761 11.035872 25.752113 -2.287718 8.649011 -6.421819 1.930769 -10.199591 1.267907 0.190210 -0.182436 0.000000 0.000000 0.000000 -68.432963 -86.305034 -68.842351 -14.997432 -20.279373 -5.444195 26.336444 8.738191 -9.159139 -9.666040 -2.708115 7.369690 -2.566672 -0.002374 -0.334877 0.000000 0.000000 0.000000 -28.505422 -84.927153 -30.194675 1.219886 0.808254 -1.148549 5.330371 1.193675 1.299444 -0.473146 -1.273219 -0.242956 0.000000 0.000000 0.000000 5.621869 0.947396 0.982477 -7.354036 8.871239 -4.521474 -5.807021 38.150875 -3.202280 0.000000 0.000000 0.000000 6.031324 1.129469 1.226971 -0.883729 5.982518 -0.451525 -0.933184 2.062094 0.893810 24.734311 -73.682810 -36.857384 0.803839 -25.423556 0.169725 0.000000 0.000000 0.000000 6.230931 1.267029 0.875851 1.484755 5.471028 7.656572 0.730090 2.526417 -1.424233 9.770017 16.534954 58.647795 0.825918 63.641893 -0.523184 0.000000 0.000000 0.000000 
2.504994 91.112740 -2.057793 0.000000 0.000000 0.000000 -65.206505 -83.732805 -66.271413 -19.805950 15.029003 11.171005 28.295747 -0.842005 9.466415 -5.373388 2.160725 -10.959288 -0.393672 0.268850 -0.479177 0.000000 0.000000 0.000000 -76.396574 -86.377605 -76.464159 -16.963571 -19.982389 -5.502770 28.856832 9.263410 -9.465782 -9.971420 -2.440077 6.153613 -2.582771 0.018068 -0.330238 0.000000 0.000000 0.000000 -35.588397 -85.583363 -37.026578 1.521168 0.702400 -1.388544 6.016677 1.171631 0.979499 -0.572900 -1.312837 -0.265604 0.000000 0.000000 0.000000 6.341116 0.859929 0.651268 -7.646825 8.807409 -4.527000 -7.305709 38.077751 -3.035030 0.000000 0.000000 0.000000 6.744426 1.097779 0.805131 -0.811432 5.790034 0.136900 -0.889764 2.327953 0.858530 21.730141 -69.261888 -39.152229 0.742588 -33.077588 0.031055 0.000000 0.000000 0.000000 6.794112 1.154384 0.592211 1.432633 5.142370 7.901110 0.016082 2.770668 -1.437313 9.829716 17.264483 57.497844 0.825918 63.641893 -0.523184 0.000000 0.000000 0.000000 
